<svg xmlns="http://www.w3.org/2000/svg" xmlns:xlink="http://www.w3.org/1999/xlink" width="470" height="468"><defs><filter id="a" width="111.8%" height="111.9%" x="-5.9%" y="-3.9%" filterUnits="objectBoundingBox"><feOffset dy="5" in="SourceAlpha" result="shadowOffsetOuter1"/><feGaussianBlur in="shadowOffsetOuter1" result="shadowBlurOuter1" stdDeviation="4"/><feColorMatrix in="shadowBlurOuter1" result="shadowMatrixOuter1" values="0 0 0 0 0 0 0 0 0 0 0 0 0 0 0 0 0 0 0.078125 0"/><feOffset dy="4" in="SourceAlpha" result="shadowOffsetOuter2"/><feGaussianBlur in="shadowOffsetOuter2" result="shadowBlurOuter2" stdDeviation="5.5"/><feColorMatrix in="shadowBlurOuter2" result="shadowMatrixOuter2" values="0 0 0 0 0 0 0 0 0 0 0 0 0 0 0 0 0 0 0.210824275 0"/><feMerge><feMergeNode in="shadowMatrixOuter1"/><feMergeNode in="shadowMatrixOuter2"/></feMerge></filter><path id="b" d="M9.635 132.808C24.782 59.782 71.388 19.109 144.085 6.822c53.74-9.081 107.5-9.196 161.15.255 74.852 13.185 119.85 56.23 134.185 130.36 11.075 57.29 11.249 115.191-.174 172.427-15.324 72.52-63.132 117.285-135.561 129.527-53.74 9.08-107.5 9.195-161.15-.255-74.852-13.186-120.05-58.38-134.384-132.509-11.64-57.668-10.52-115.935 1.484-173.82z"/></defs><g fill="none" fill-rule="evenodd"><g transform="translate(11 7)"><use fill="#000" filter="url(#a)" xlink:href="#b"/><use fill="#987EFC" xlink:href="#b"/></g><path fill="#FFF" d="m299.203 244.306.038.037-75.97 51.242.208.02s-27.303 18.27-33.243 22.393c-5.941 4.123-.018.012-.018.012-3.434 2.756-6.218 1.404-6.218-3.013V189h-19v126.5c0 12.426 10.074 22.5 22.5 22.5a22.4 22.4 0 0 0 13.454-4.464l126.645-85.585a23.103 23.103 0 0 0 2.413-1.63l.914-.618-.054-.08c7.046-5.995 10.23-15.956 7.301-25.534-2.144-7.013-7.118-12.363-13.237-15.13l-151.6-83.976-9.212 16.617 133.138 73.8c0 .002-.002.003-.003.005 8.673 4.819 17.572 9.798 18.086 10.225 1.019.843 1.205 1.256 1.205 1.256 2.857 3.372 2.204 8.125-1.443 10.605l-15.904 10.815z"/></g></svg>